<?xml version="1.0" encoding="utf-8"?>
<!-- Generator: Adobe Illustrator 26.2.1, SVG Export Plug-In . SVG Version: 6.00 Build 0)  -->
<svg version="1.1" id="Layer_1" xmlns="http://www.w3.org/2000/svg" xmlns:xlink="http://www.w3.org/1999/xlink" x="0px" y="0px"
	 viewBox="0 0 137.4 34.5" style="enable-background:new 0 0 137.4 34.5;" xml:space="preserve">
<style type="text/css">
	.st0{fill:url(#SVGID_1_);}
	.st1{fill:url(#SVGID_00000130621177088268777990000001716153439232286107_);}
	.st2{opacity:0.57;}
	.st3{fill:#E1FE6C;}
	.st4{fill:#EDD3B3;}
	.st5{fill:#606060;}
	.st6{fill:#F6F6F6;}
	.st7{opacity:0.61;fill:url(#SVGID_00000142153805539192610170000015175790341839178904_);}
	.st8{fill:#FFFFFF;}
	.st9{opacity:0.61;fill:url(#SVGID_00000156554040975101986180000013804910466610139314_);}
	.st10{opacity:0.61;fill:url(#SVGID_00000165227956203265076100000013306425210869770911_);}
	.st11{fill:#FF6600;stroke:#FFFFFF;stroke-width:1.0956;stroke-miterlimit:10;}
	.st12{fill:none;stroke:#000000;stroke-width:1.3332;stroke-miterlimit:10;}
	.st13{opacity:0.61;fill:url(#SVGID_00000152258678605982547790000011693227716805341618_);}
	.st14{opacity:0.61;fill:url(#SVGID_00000038377588022032958550000008369115054344792739_);}
	.st15{fill:url(#SVGID_00000028298515485196726610000014189420179560720036_);}
	.st16{fill:none;stroke:#FFFFFF;stroke-width:1.3332;stroke-miterlimit:10;}
	.st17{fill:url(#SVGID_00000126322789656938112520000010548286809008638876_);}
	.st18{fill:url(#SVGID_00000016064967728323072260000006904510373499660196_);}
	.st19{fill:none;stroke:#FFFFFF;stroke-width:1.3321;stroke-miterlimit:10;}
	.st20{fill:url(#SVGID_00000114072513235816204850000017523419942261291668_);}
	.st21{fill:url(#SVGID_00000013881606231679065460000002984043292369041821_);}
	.st22{fill:none;stroke:#FFFFFF;stroke-width:1.0723;stroke-miterlimit:10;}
	.st23{fill:url(#SVGID_00000175289064966292977820000008123190249438411689_);}
	.st24{fill:url(#SVGID_00000137847893584466221450000011338318981490474382_);}
	.st25{fill:url(#SVGID_00000097463147340839274140000008676312209006495105_);}
	.st26{fill:url(#SVGID_00000147204908027838856680000015406690927799733405_);}
	.st27{fill:none;stroke:#FFFFFF;stroke-width:1.2251;stroke-miterlimit:10;}
	.st28{fill:url(#SVGID_00000008137298141627636890000009403034282781456790_);}
	.st29{fill:url(#SVGID_00000091712710570044106500000015338116333620575373_);}
	.st30{fill:none;stroke:#FFFFFF;stroke-width:1.2692;stroke-miterlimit:10;}
	.st31{fill:url(#SVGID_00000147929412544733986530000011023938750327456897_);}
	.st32{fill:none;stroke:#FFFFFF;stroke-width:1.2567;stroke-miterlimit:10;}
	.st33{fill:url(#SVGID_00000066502178262449999170000004039469698110753669_);}
	.st34{fill:url(#SVGID_00000180330605494353538150000002650128347162868620_);}
	.st35{fill:url(#SVGID_00000052790481713357264020000007235096351365569454_);}
	.st36{fill:url(#SVGID_00000171001185514996566190000002776628663157266326_);}
	.st37{fill:url(#SVGID_00000081610757860360806250000002682328372292340111_);}
	.st38{fill:url(#SVGID_00000176736984490091414010000004420371260571843733_);}
	.st39{fill:url(#SVGID_00000044864306152688759500000018006728647255041979_);}
	.st40{fill:url(#SVGID_00000047755433625773374050000001487268181594807184_);}
	.st41{fill:url(#SVGID_00000165214283011573438500000003474922039981895602_);}
	.st42{fill:url(#SVGID_00000172436084924899649150000010652078242711236527_);}
	.st43{fill:url(#SVGID_00000124845917721921360430000002016355825200629153_);}
</style>
<g>
	<g>
		<path class="st6" d="M131.4,34.5H6c-3.3,0-6-2.7-6-5.9V5.9C0,2.7,2.7,0,6,0h125.3c3.3,0,6,2.7,6,5.9v22.7
			C137.4,31.9,134.7,34.5,131.4,34.5z M6,1.2c-2.6,0-4.8,2.1-4.8,4.7v22.7c0,2.6,2.1,4.7,4.8,4.7h125.3c2.6,0,4.8-2.1,4.8-4.7V5.9
			c0-2.6-2.1-4.7-4.8-4.7H6z"/>
	</g>
</g>
<g>
	<g>
		<polyline class="st19" points="121.7,13 126.1,17.4 121.7,21.8 		"/>
	</g>
	<g>
		<g>
			<path class="st8" d="M12.4,22.4v-10h1.5c0.7,0,1.2,0.1,1.6,0.2c0.4,0.1,0.7,0.3,1,0.5c0.3,0.3,0.5,0.6,0.7,1
				c0.2,0.4,0.3,0.8,0.3,1.2c0,0.7-0.3,1.3-0.8,1.8c0.5,0.2,0.9,0.5,1.3,1c0.3,0.4,0.5,1,0.5,1.6c0,0.8-0.3,1.4-0.8,2
				c-0.3,0.3-0.7,0.6-1.1,0.7c-0.5,0.1-1,0.2-1.7,0.2H12.4z M13.9,16.7h0.5c0.6,0,1-0.1,1.2-0.4c0.3-0.2,0.4-0.6,0.4-1.1
				c0-0.5-0.1-0.8-0.4-1.1s-0.7-0.4-1.2-0.4h-0.5V16.7z M13.9,21h0.9c0.7,0,1.2-0.1,1.5-0.4c0.3-0.3,0.5-0.7,0.5-1.1
				c0-0.4-0.2-0.8-0.5-1.1C16,18.1,15.5,18,14.7,18h-0.8V21z"/>
			<path class="st8" d="M21.2,12.4v6c0,0.9,0.1,1.5,0.4,1.9c0.4,0.6,1,0.9,1.8,0.9c0.8,0,1.4-0.3,1.8-0.9c0.3-0.4,0.4-1,0.4-1.9v-6
				h1.5v6.4c0,1.1-0.3,1.9-1,2.6c-0.7,0.8-1.6,1.1-2.7,1.1c-1.1,0-2-0.4-2.7-1.1c-0.7-0.7-1-1.5-1-2.6v-6.4H21.2z"/>
			<path class="st8" d="M30.9,18.1l-3.3-5.7h1.7l2.3,4l2.3-4h1.7l-3.3,5.7v4.3h-1.5V18.1z"/>
			<path class="st8" d="M42.2,13.8h-1.7l0.8-1.4h2.4v10h-1.5V13.8z"/>
			<path class="st8" d="M56.1,17.2h4.1v0.3c0,0.8-0.1,1.4-0.3,2c-0.2,0.5-0.5,1-0.9,1.5c-0.9,1-2.1,1.6-3.5,1.6
				c-1.4,0-2.6-0.5-3.6-1.5c-1-1-1.5-2.2-1.5-3.7c0-1.4,0.5-2.7,1.5-3.7c1-1,2.2-1.5,3.7-1.5c0.8,0,1.5,0.2,2.2,0.5
				c0.6,0.3,1.3,0.8,1.9,1.6l-1.1,1c-0.8-1.1-1.8-1.6-3-1.6c-1.1,0-1.9,0.4-2.7,1.1c-0.7,0.7-1.1,1.6-1.1,2.7c0,1.1,0.4,2,1.2,2.8
				c0.7,0.7,1.6,1,2.4,1c0.7,0,1.4-0.3,2-0.8c0.6-0.5,0.9-1.1,1-1.8h-2.5V17.2z"/>
			<path class="st8" d="M67,13.8h-4v2.4h3.9v1.4H63V21h4v1.4h-5.5v-10H67V13.8z"/>
			<path class="st8" d="M71.2,13.8v8.6h-1.5v-8.6h-2.3v-1.4h6.1v1.4H71.2z"/>
			<path class="st8" d="M80.2,13.8h-1.7l0.8-1.4h2.4v10h-1.5V13.8z"/>
			<path class="st8" d="M93.9,13.8h-3.5v2.4h3.4v1.4h-3.4v4.8h-1.5v-10h5V13.8z"/>
			<path class="st8" d="M98.5,18.1l3.1,4.3h-1.8l-2.9-4.1h-0.3v4.1h-1.5v-10h1.8c1.3,0,2.3,0.2,2.9,0.7c0.6,0.6,1,1.3,1,2.2
				c0,0.7-0.2,1.3-0.6,1.8S99.1,18,98.5,18.1z M96.6,17h0.5c1.4,0,2.1-0.5,2.1-1.6c0-1-0.7-1.5-2.1-1.5h-0.5V17z"/>
			<path class="st8" d="M108,13.8h-4v2.4h3.9v1.4H104V21h4v1.4h-5.5v-10h5.5V13.8z"/>
			<path class="st8" d="M114.9,13.8h-4v2.4h3.9v1.4h-3.9V21h4v1.4h-5.5v-10h5.5V13.8z"/>
		</g>
	</g>
</g>
</svg>
