<?xml version="1.0" encoding="utf-8"?>
<!-- Generator: Adobe Illustrator 26.2.1, SVG Export Plug-In . SVG Version: 6.00 Build 0)  -->
<svg version="1.1" id="Layer_1" xmlns="http://www.w3.org/2000/svg" xmlns:xlink="http://www.w3.org/1999/xlink" x="0px" y="0px"
	 viewBox="0 0 174.2 64.4" style="enable-background:new 0 0 174.2 64.4;" xml:space="preserve">
<style type="text/css">
	.st0{fill:url(#SVGID_1_);}
	.st1{fill:url(#SVGID_00000135673474272263990230000013922354553400450703_);}
	.st2{opacity:0.57;}
	.st3{fill:#E1FE6C;}
	.st4{fill:#EDD3B3;}
	.st5{fill:#606060;}
	.st6{fill:#F6F6F6;}
	.st7{opacity:0.61;fill:url(#SVGID_00000083073226416561514790000002043825166179811512_);}
	.st8{fill:#FFFFFF;}
	.st9{opacity:0.61;fill:url(#SVGID_00000168816375422070546840000013901777917259846074_);}
	.st10{opacity:0.61;fill:url(#SVGID_00000160174991142643588820000005503586694136966025_);}
	.st11{fill:#FF6600;stroke:#FFFFFF;stroke-width:1.0956;stroke-miterlimit:10;}
	.st12{fill:none;stroke:#000000;stroke-width:1.3332;stroke-miterlimit:10;}
	.st13{opacity:0.61;fill:url(#SVGID_00000047742708144910714920000014757866408720485505_);}
	.st14{opacity:0.61;fill:url(#SVGID_00000018236873567864727670000001589133473909675192_);}
	.st15{fill:url(#SVGID_00000026852649167755043690000006459000615224431787_);}
	.st16{fill:none;stroke:#FFFFFF;stroke-width:1.3332;stroke-miterlimit:10;}
	.st17{fill:url(#SVGID_00000181806781334440761280000006210141707419782538_);}
	.st18{fill:url(#SVGID_00000174583069556942553360000013776619313813713079_);}
	.st19{fill:none;stroke:#FFFFFF;stroke-width:1.3321;stroke-miterlimit:10;}
	.st20{fill:url(#SVGID_00000044895832524442840180000002189380321139863204_);}
	.st21{fill:url(#SVGID_00000066512814147070475590000018107079101477102501_);}
	.st22{fill:none;stroke:#FFFFFF;stroke-width:1.0723;stroke-miterlimit:10;}
	.st23{fill:url(#SVGID_00000155832251592392251380000003262686539678057380_);}
	.st24{fill:url(#SVGID_00000014598990040909369760000002990521528993800864_);}
	.st25{fill:url(#SVGID_00000083075349417650331600000015229745983596665228_);}
	.st26{fill:url(#SVGID_00000029752851779943886340000013997794677309031851_);}
	.st27{fill:none;stroke:#FFFFFF;stroke-width:1.2251;stroke-miterlimit:10;}
	.st28{fill:url(#SVGID_00000152982168886891864520000012513959303929823676_);}
	.st29{fill:url(#SVGID_00000010292722032574509830000016541725566025191357_);}
	.st30{fill:none;stroke:#FFFFFF;stroke-width:1.2692;stroke-miterlimit:10;}
	.st31{fill:url(#SVGID_00000178180814748532041770000010068212195397754521_);}
	.st32{fill:none;stroke:#FFFFFF;stroke-width:1.2567;stroke-miterlimit:10;}
	.st33{fill:url(#SVGID_00000182519726894161785590000010921662212821275068_);}
	.st34{fill:url(#SVGID_00000124123022980525880950000002946083048537207479_);}
	.st35{fill:url(#SVGID_00000086664857721794066150000006507507676764570758_);}
	.st36{fill:url(#SVGID_00000129919641516717224380000006728496269666647480_);}
	.st37{fill:url(#SVGID_00000011730409182716729600000006359869525153697930_);}
	.st38{fill:url(#SVGID_00000169519331592480043110000013458146871723074443_);}
	.st39{fill:url(#SVGID_00000114055071766361365800000003906593068295159204_);}
	.st40{fill:url(#SVGID_00000026158634915570319210000014678368722390274435_);}
	.st41{fill:url(#SVGID_00000010992161709433528770000017994489041527551883_);}
	.st42{fill:url(#SVGID_00000006672354227743135100000013196771674538900355_);}
	.st43{fill:url(#SVGID_00000020370344831275519880000011458574095312184992_);}
</style>
<g>
	<path class="st8" d="M51.1,30.8h-8.2v-23h-4.5V0.5h17.4v7.2h-4.7V30.8z"/>
	<path class="st8" d="M83.8,30.8H76l-1.9-10.6c-0.4-2-0.6-3.8-0.8-5.3c-0.1-0.7-0.2-1.4-0.2-1.9c-0.1-0.5-0.1-0.9-0.1-1.1
		c-0.1,0.5-0.2,1.5-0.3,3c-0.1,0.7-0.1,1.5-0.2,2.4c-0.1,0.8-0.2,1.7-0.3,2.6l-1.5,11h-8L55.8,0.5h8.1l1.3,8.3
		c0.5,3.3,0.9,5.9,1.1,7.8l0.3,2.8l0.3-2.4c0.3-2.8,0.6-5.4,1.1-7.9l1.5-8.6h7l1.4,7.3c0.7,3.4,1.2,7.4,1.7,12
		c0.1-2.1,0.3-3.9,0.5-5.5c0.2-1.6,0.4-3.1,0.6-4.4L82,0.5h8L83.8,30.8z"/>
	<path class="st8" d="M98.9,30.8h-8.2V0.5h8.2V30.8z"/>
	<path class="st8" d="M118.8,21.5l-0.5,8.7c-1.8,0.7-3.4,1.1-4.9,1.1c-3.4,0-6.2-1.2-8.5-3.7c-2.6-2.8-3.9-6.7-3.9-11.8
		c0-4.8,1.2-8.6,3.6-11.5c2.4-2.9,5.7-4.3,9.7-4.3c1.3,0,2.7,0.2,4,0.7v8.6c-1.2-1.2-2.5-1.8-3.7-1.8c-1.7,0-3,0.7-3.9,2.1
		c-0.9,1.4-1.4,3.4-1.4,6c0,1.2,0.1,2.3,0.4,3.3s0.6,1.8,1,2.4c0.4,0.7,1,1.2,1.6,1.5c0.6,0.4,1.4,0.5,2.2,0.5
		C116,23.4,117.4,22.8,118.8,21.5z"/>
	<path class="st8" d="M120.7,30.8V0.5h15.2v7.1h-7v4.4h6.3v6.8h-6.3v4.6h7v7.3H120.7z"/>
	<path class="st8" d="M12.7,63.9H4.5v-23H0v-7.2h17.4v7.2h-4.7V63.9z"/>
	<path class="st8" d="M38.4,63.9h-8.2V51.7h-3.9v12.2h-8.2V33.6h8.2v10.7h3.9V33.6h8.2V63.9z"/>
	<path class="st8" d="M41.3,63.9V33.6h15.2v7.1h-7v4.4h6.3V52h-6.3v4.6h7v7.3H41.3z"/>
	<path class="st8" d="M68.7,63.1v-9.5c1.6,2.2,3.3,3.3,5.2,3.3c0.7,0,1.3-0.2,1.7-0.6c0.4-0.4,0.7-0.8,0.7-1.4
		c0-0.8-0.5-1.6-1.4-2.4l-1.3-1c-0.9-0.7-1.6-1.3-2.3-2c-0.6-0.7-1.1-1.3-1.5-2c-0.4-0.7-0.7-1.4-0.9-2.2c-0.2-0.7-0.3-1.5-0.3-2.4
		c0-1.4,0.3-2.9,1-4.4c0.3-0.7,0.7-1.4,1.1-2c0.4-0.6,0.9-1.1,1.5-1.6c1.5-1.3,3.4-2,5.6-2c1.9,0,3.9,0.5,5.9,1.5v9.2
		c-0.7-1-1.4-1.8-2.3-2.4c-0.8-0.6-1.7-0.9-2.5-0.9c-0.6,0-1.1,0.2-1.5,0.5c-0.4,0.4-0.6,0.8-0.6,1.3c0,0.8,0.6,1.6,1.7,2.4l1.3,1
		c1.7,1.2,3,2.5,3.7,3.8c0.8,1.3,1.1,2.8,1.1,4.6c0,3-0.9,5.4-2.7,7.4c-1.8,1.9-4.1,2.9-6.9,2.9C73,64.4,70.9,64,68.7,63.1z"/>
	<path class="st8" d="M94.5,63.9h-8.2V33.6h7.9c3.9,0,6.9,0.8,8.8,2.4c2.2,1.9,3.4,4.5,3.4,7.9c0,3.7-1.2,6.4-3.6,8.2
		c-1.6,1.2-4,1.8-7,1.8h-1.3V63.9z M94.5,47.2l0.4,0c1,0,1.8-0.3,2.4-0.9c0.6-0.6,0.9-1.4,0.9-2.5c0-1-0.3-1.9-0.9-2.5
		c-0.6-0.7-1.3-1-2.2-1h-0.6V47.2z"/>
	<path class="st8" d="M108,63.9V33.6h15.2v7.1h-7v4.4h6.3V52h-6.3v4.6h7v7.3H108z"/>
	<path class="st8" d="M125.3,63.9V33.6h15.2v7.1h-7v4.4h6.3V52h-6.3v4.6h7v7.3H125.3z"/>
	<path class="st8" d="M142.6,63.9V33.6h7.1c4,0,7.2,1.1,9.4,3.3c2.9,2.8,4.4,6.8,4.4,11.9c0,5-1.2,8.9-3.7,11.6
		c-2.1,2.3-5.3,3.5-9.5,3.5H142.6z M150.8,56.6c2.9-0.1,4.4-2.7,4.4-7.6c0-2.4-0.4-4.3-1.1-5.7c-0.7-1.4-1.8-2.1-3-2.1h-0.3V56.6z"
		/>
	<path class="st8" d="M174.2,59.8c0,1.2-0.4,2.3-1.4,3.2c-0.9,0.9-1.9,1.3-3.2,1.3c-1.3,0-2.3-0.4-3.3-1.3c-0.9-0.9-1.4-2-1.4-3.3
		c0-1.3,0.4-2.3,1.3-3.2c0.9-0.9,2-1.3,3.2-1.3c1.3,0,2.4,0.5,3.3,1.4C173.8,57.4,174.2,58.5,174.2,59.8z"/>
</g>
</svg>
