<?xml version="1.0" encoding="utf-8"?>
<!-- Generator: Adobe Illustrator 26.2.1, SVG Export Plug-In . SVG Version: 6.00 Build 0)  -->
<svg version="1.1" id="Layer_1" xmlns="http://www.w3.org/2000/svg" xmlns:xlink="http://www.w3.org/1999/xlink" x="0px" y="0px"
	 viewBox="0 0 44.9 16" style="enable-background:new 0 0 44.9 16;" xml:space="preserve">
<style type="text/css">
	.st0{fill:url(#SVGID_1_);}
	.st1{fill:url(#SVGID_00000129169527291055346610000013105857902863208595_);}
	.st2{opacity:0.57;}
	.st3{fill:#E1FE6C;}
	.st4{fill:#EDD3B3;}
	.st5{fill:#606060;}
	.st6{fill:#F6F6F6;}
	.st7{opacity:0.61;fill:url(#SVGID_00000085930201468757568490000008871053932028838056_);}
	.st8{fill:#FFFFFF;}
	.st9{opacity:0.61;fill:url(#SVGID_00000006693141705815459540000017693709682023361156_);}
	.st10{opacity:0.61;fill:url(#SVGID_00000000218380385916174260000002968144677642268602_);}
	.st11{fill:#FF6600;stroke:#FFFFFF;stroke-width:1.0956;stroke-miterlimit:10;}
	.st12{fill:none;stroke:#000000;stroke-width:1.3332;stroke-miterlimit:10;}
	.st13{opacity:0.61;fill:url(#SVGID_00000000212879540381468790000005390952090926057364_);}
	.st14{opacity:0.61;fill:url(#SVGID_00000106113666842253558790000014854309225304591541_);}
	.st15{fill:url(#SVGID_00000091727460572248082260000015868458352349734567_);}
	.st16{fill:none;stroke:#FFFFFF;stroke-width:1.3332;stroke-miterlimit:10;}
	.st17{fill:url(#SVGID_00000031209738543149633650000004747393949476941465_);}
	.st18{fill:url(#SVGID_00000074406861920317781140000010862997345324015030_);}
	.st19{fill:none;stroke:#FFFFFF;stroke-width:1.3321;stroke-miterlimit:10;}
	.st20{fill:url(#SVGID_00000094607083806548439130000002274900970419713447_);}
	.st21{fill:url(#SVGID_00000049929431228792481240000001320748132303246009_);}
	.st22{fill:url(#SVGID_00000151531851718033145470000012867654251350880150_);}
	.st23{fill:url(#SVGID_00000052795750059446625570000016354320284019446413_);}
	.st24{fill:url(#SVGID_00000160904699052257523180000009873130202592913042_);}
	.st25{fill:none;stroke:#FFFFFF;stroke-width:1.2251;stroke-miterlimit:10;}
	.st26{fill:url(#SVGID_00000123439465994018566490000010228539628790260107_);}
	.st27{fill:none;stroke:#FFFFFF;stroke-width:1.2692;stroke-miterlimit:10;}
	.st28{fill:url(#SVGID_00000026152913862340596480000011926968504069410717_);}
	.st29{fill:url(#SVGID_00000030459173535814565080000006990426946203122312_);}
</style>
<path class="st8" d="M5,16c-1.3-0.1-2.4-0.4-3.3-1.1c-0.2-0.1-0.6-0.5-0.7-0.7c-0.3-0.4-0.6-0.9-0.7-1.3C-0.2,11.4,0,9.5,1,7.4
	c0.8-1.8,2.1-3.6,4.3-6C5.5,1.1,6.5,0,6.5,0c0,0,0,0.1-0.1,0.2c-0.6,1-1.1,2.1-1.3,3C4.6,4.8,4.7,6.1,5.2,7.2c0.4,0.7,1,1.3,1.7,1.7
	c1.2,0.6,3,0.6,5.2,0.1c0.2,0,7.6-2,16.6-4.4c9-2.4,16.3-4.3,16.3-4.3c0,0-20.8,8.9-31.6,13.5c-1.7,0.7-2.2,0.9-3,1.2
	C8.3,15.7,6.4,16,5,16L5,16z"/>
</svg>
